<svg xmlns="http://www.w3.org/2000/svg" width="500" height="500" viewBox="0 0 500 500"><g transform="translate(25.60784867180968,280.14751821943963)translate(224.03955078125,30.5)rotate(0)translate(-224.03955078125,-30.5)" opacity="1"><path transform="translate(6,36.447265625)rotate(0)" d="M0.47 0L16.96-35.11L24.50-35.11L41.49 0L34.01 0L31.20-5.91L10.69-5.91L7.97 0L0.47 0ZM13.41-11.77L28.39-11.77L20.80-27.72L13.41-11.77ZM46.94 0L46.94-35.11L54.06-35.11L54.06-6.24L74.48-6.24L74.48 0L46.94 0ZM81.38 0L81.38-35.11L99.88-35.11L99.88-35.11Q103.93-35.11 106.89-34.23L106.89-34.23L106.89-34.23Q109.86-33.35 111.81-31.70L111.81-31.70L111.81-31.70Q113.76-30.05 114.72-27.67L114.72-27.67L114.72-27.67Q115.67-25.29 115.67-22.30L115.67-22.30L115.67-22.30Q115.67-19.50 114.73-17.12L114.73-17.12L114.73-17.12Q113.79-14.73 111.84-12.99L111.84-12.99L111.84-12.99Q109.90-11.25 106.94-10.28L106.94-10.28L106.94-10.28Q103.97-9.30 99.93-9.30L99.93-9.30L88.50-9.32L88.50 0L81.38 0ZM88.50-15.48L100.06-15.48L100.06-15.48Q102.08-15.48 103.60-15.96L103.60-15.96L103.60-15.96Q105.12-16.44 106.14-17.33L106.14-17.33L106.14-17.33Q107.16-18.22 107.67-19.48L107.67-19.48L107.67-19.48Q108.17-20.75 108.17-22.30L108.17-22.30L108.17-22.30Q108.17-25.43 106.14-27.17L106.14-27.17L106.14-27.17Q104.11-28.91 100.06-28.91L100.06-28.91L88.50-28.91L88.50-15.48ZM123.42 0L123.42-35.11L130.54-35.11L130.54-25.94L152.38-25.94L152.38-35.11L159.52-35.11L159.52 0L152.38 0L152.38-19.86L130.54-19.86L130.54 0L123.42 0ZM164.98 0L181.46-35.11L189.01-35.11L205.99 0L198.51 0L195.70-5.91L175.20-5.91L172.48 0L164.98 0ZM177.91-11.77L192.89-11.77L185.30-27.72L177.91-11.77ZM226.72 0L226.72-35.11L245.23-35.11L245.23-35.11Q249.27-35.11 252.24-34.23L252.24-34.23L252.24-34.23Q255.20-33.35 257.16-31.70L257.16-31.70L257.16-31.70Q259.11-30.05 260.06-27.67L260.06-27.67L260.06-27.67Q261.02-25.29 261.02-22.30L261.02-22.30L261.02-22.30Q261.02-19.50 260.08-17.12L260.08-17.12L260.08-17.12Q259.13-14.73 257.19-12.99L257.19-12.99L257.19-12.99Q255.25-11.25 252.28-10.28L252.28-10.28L252.28-10.28Q249.32-9.30 245.27-9.30L245.27-9.30L233.84-9.32L233.84 0L226.72 0ZM233.84-15.48L245.41-15.48L245.41-15.48Q247.43-15.48 248.95-15.96L248.95-15.96L248.95-15.96Q250.46-16.44 251.48-17.33L251.48-17.33L251.48-17.33Q252.51-18.22 253.01-19.48L253.01-19.48L253.01-19.48Q253.52-20.75 253.52-22.30L253.52-22.30L253.52-22.30Q253.52-25.43 251.48-27.17L251.48-27.17L251.48-27.17Q249.45-28.91 245.41-28.91L245.41-28.91L233.84-28.91L233.84-15.48ZM268.77 0L268.77-35.11L275.89-35.11L275.89-25.94L297.72-25.94L297.72-35.11L304.86-35.11L304.86 0L297.72 0L297.72-19.86L275.89-19.86L275.89 0L268.77 0ZM310.32 0L326.81-35.11L334.35-35.11L351.33 0L343.85 0L341.05-5.91L320.54-5.91L317.82 0L310.32 0ZM323.26-11.77L338.24-11.77L330.65-27.72L323.26-11.77ZM354.64-4.67L358.43-10.44L358.43-10.44Q360.34-9.37 362.31-8.50L362.31-8.50L362.31-8.50Q364.27-7.64 366.38-7.04L366.38-7.04L366.38-7.04Q368.49-6.45 370.82-6.13L370.82-6.13L370.82-6.13Q373.14-5.82 375.77-5.82L375.77-5.82L375.77-5.82Q378.94-5.82 381.16-6.23L381.16-6.23L381.16-6.23Q383.39-6.65 384.79-7.38L384.79-7.38L384.79-7.38Q386.19-8.11 386.83-9.12L386.83-9.12L386.83-9.12Q387.47-10.13 387.47-11.32L387.47-11.32L387.47-11.32Q387.47-13.23 385.88-14.34L385.88-14.34L385.88-14.34Q384.28-15.45 380.96-15.45L380.96-15.45L380.96-15.45Q379.50-15.45 377.88-15.26L377.88-15.26L377.88-15.26Q376.27-15.07 374.61-14.85L374.61-14.85L374.61-14.85Q372.96-14.62 371.36-14.43L371.36-14.43L371.36-14.43Q369.75-14.24 368.34-14.24L368.34-14.24L368.34-14.24Q365.98-14.24 363.81-14.85L363.81-14.85L363.81-14.85Q361.64-15.45 359.97-16.67L359.97-16.67L359.97-16.67Q358.30-17.88 357.31-19.70L357.31-19.70L357.31-19.70Q356.32-21.52 356.32-23.94L356.32-23.94L356.32-23.94Q356.32-25.38 356.71-26.80L356.71-26.80L356.71-26.80Q357.11-28.21 357.97-29.50L357.97-29.50L357.97-29.50Q358.84-30.79 360.21-31.91L360.21-31.91L360.21-31.91Q361.58-33.02 363.52-33.83L363.52-33.83L363.52-33.83Q365.46-34.63 368.01-35.10L368.01-35.10L368.01-35.10Q370.56-35.56 373.82-35.56L373.82-35.56L373.82-35.56Q376.18-35.56 378.56-35.30L378.56-35.30L378.56-35.30Q380.94-35.04 383.19-34.57L383.19-34.57L383.19-34.57Q385.45-34.10 387.54-33.43L387.54-33.43L387.54-33.43Q389.63-32.77 391.43-31.96L391.43-31.96L388.30-26.21L388.30-26.21Q386.82-26.86 385.12-27.41L385.12-27.41L385.12-27.41Q383.41-27.96 381.54-28.37L381.54-28.37L381.54-28.37Q379.68-28.77 377.69-29.01L377.69-29.01L377.69-29.01Q375.70-29.24 373.64-29.24L373.64-29.24L373.64-29.24Q370.70-29.24 368.80-28.82L368.80-28.82L368.80-28.82Q366.90-28.39 365.78-27.73L365.78-27.73L365.78-27.73Q364.65-27.07 364.22-26.25L364.22-26.25L364.22-26.25Q363.78-25.43 363.78-24.62L363.78-24.62L363.78-24.62Q363.78-23.04 365.19-22.05L365.19-22.05L365.19-22.05Q366.61-21.05 369.50-21.05L369.50-21.05L369.50-21.05Q370.67-21.05 372.19-21.21L372.19-21.21L372.19-21.21Q373.71-21.38 375.38-21.58L375.38-21.58L375.38-21.58Q377.05-21.79 378.79-21.96L378.79-21.96L378.79-21.96Q380.53-22.12 382.17-22.12L382.17-22.12L382.17-22.12Q385.27-22.12 387.66-21.43L387.66-21.43L387.66-21.43Q390.06-20.73 391.67-19.44L391.67-19.44L391.67-19.44Q393.29-18.15 394.12-16.32L394.12-16.32L394.12-16.32Q394.95-14.49 394.95-12.22L394.95-12.22L394.95-12.22Q394.95-9.19 393.55-6.82L393.55-6.82L393.55-6.82Q392.15-4.45 389.55-2.82L389.55-2.82L389.55-2.82Q386.96-1.19 383.30-0.35L383.30-0.35L383.30-0.35Q379.63 0.49 375.14 0.49L375.14 0.49L375.14 0.49Q372.18 0.49 369.35 0.12L369.35 0.12L369.35 0.12Q366.52-0.25 363.92-0.93L363.92-0.93L363.92-0.93Q361.33-1.62 358.98-2.57L358.98-2.57L358.98-2.57Q356.63-3.53 354.64-4.67L354.64-4.67ZM402.79 0L402.79-35.11L432.69-35.11L432.69-28.86L409.91-28.86L409.91-21.85L430.08-21.85L430.08-15.99L409.91-15.99L409.91-6.22L433.16-6.22L433.16 0L402.79 0Z" fill="#00154f"/></g><g transform="translate(113.19735367669266,345.40617017604137)translate(136.95004577636718,23.1953125)rotate(0)translate(-136.95004577636718,-23.1953125)" opacity="1"><path transform="translate(6,29.44)rotate(0)" d="M1.51-12.96L1.51-12.96L1.51-12.96Q1.51-15.26 2.32-17.55L2.32-17.55L2.32-17.55Q3.13-19.84 4.68-21.64L4.68-21.64L4.68-21.64Q6.23-23.44 8.50-24.57L8.50-24.57L8.50-24.57Q10.76-25.70 13.64-25.70L13.64-25.70L13.64-25.70Q17.06-25.70 19.49-24.16L19.49-24.16L19.49-24.16Q21.92-22.61 23.08-20.12L23.08-20.12L21.10-18.90L21.10-18.90Q20.48-20.16 19.60-21.02L19.60-21.02L19.60-21.02Q18.72-21.89 17.71-22.43L17.71-22.43L17.71-22.43Q16.70-22.97 15.62-23.20L15.62-23.20L15.62-23.20Q14.54-23.44 13.50-23.44L13.50-23.44L13.50-23.44Q11.20-23.44 9.43-22.50L9.43-22.50L9.43-22.50Q7.67-21.56 6.46-20.05L6.46-20.05L6.46-20.05Q5.26-18.54 4.64-16.65L4.64-16.65L4.64-16.65Q4.03-14.76 4.03-12.82L4.03-12.82L4.03-12.82Q4.03-10.69 4.77-8.75L4.77-8.75L4.77-8.75Q5.51-6.80 6.79-5.31L6.79-5.31L6.79-5.31Q8.06-3.82 9.81-2.93L9.81-2.93L9.81-2.93Q11.56-2.05 13.61-2.05L13.61-2.05L13.61-2.05Q14.69-2.05 15.82-2.32L15.82-2.32L15.82-2.32Q16.96-2.59 18.02-3.19L18.02-3.19L18.02-3.19Q19.08-3.78 19.98-4.66L19.98-4.66L19.98-4.66Q20.88-5.54 21.49-6.80L21.49-6.80L23.58-5.72L23.58-5.72Q22.97-4.28 21.85-3.19L21.85-3.19L21.85-3.19Q20.74-2.09 19.37-1.33L19.37-1.33L19.37-1.33Q18.00-0.58 16.47-0.18L16.47-0.18L16.47-0.18Q14.94 0.22 13.46 0.22L13.46 0.22L13.46 0.22Q10.84 0.22 8.64-0.94L8.64-0.94L8.64-0.94Q6.44-2.09 4.86-3.94L4.86-3.94L4.86-3.94Q3.28-5.80 2.39-8.15L2.39-8.15L2.39-8.15Q1.51-10.51 1.51-12.96ZM41.80 0.18L41.80 0.18L41.80 0.18Q39.13 0.18 36.92-0.92L36.92-0.92L36.92-0.92Q34.70-2.02 33.12-3.83L33.12-3.83L33.12-3.83Q31.54-5.65 30.67-7.99L30.67-7.99L30.67-7.99Q29.81-10.33 29.81-12.78L29.81-12.78L29.81-12.78Q29.81-15.34 30.73-17.68L30.73-17.68L30.73-17.68Q31.64-20.02 33.26-21.82L33.26-21.82L33.26-21.82Q34.88-23.62 37.08-24.68L37.08-24.68L37.08-24.68Q39.28-25.74 41.83-25.74L41.83-25.74L41.83-25.74Q44.50-25.74 46.71-24.61L46.71-24.61L46.71-24.61Q48.92-23.47 50.49-21.64L50.49-21.64L50.49-21.64Q52.06-19.80 52.92-17.48L52.92-17.48L52.92-17.48Q53.78-15.16 53.78-12.74L53.78-12.74L53.78-12.74Q53.78-10.19 52.87-7.85L52.87-7.85L52.87-7.85Q51.95-5.51 50.35-3.73L50.35-3.73L50.35-3.73Q48.74-1.94 46.55-0.88L46.55-0.88L46.55-0.88Q44.35 0.18 41.80 0.18ZM32.33-12.78L32.33-12.78L32.33-12.78Q32.33-10.69 33.01-8.77L33.01-8.77L33.01-8.77Q33.70-6.84 34.96-5.35L34.96-5.35L34.96-5.35Q36.22-3.85 37.94-2.97L37.94-2.97L37.94-2.97Q39.67-2.09 41.80-2.09L41.80-2.09L41.80-2.09Q43.96-2.09 45.72-3.02L45.72-3.02L45.72-3.02Q47.48-3.96 48.71-5.47L48.71-5.47L48.71-5.47Q49.93-6.98 50.60-8.89L50.60-8.89L50.60-8.89Q51.26-10.80 51.26-12.78L51.26-12.78L51.26-12.78Q51.26-14.87 50.56-16.79L50.56-16.79L50.56-16.79Q49.86-18.72 48.60-20.20L48.60-20.20L48.60-20.20Q47.34-21.67 45.61-22.55L45.61-22.55L45.61-22.55Q43.88-23.44 41.80-23.44L41.80-23.44L41.80-23.44Q39.64-23.44 37.87-22.52L37.87-22.52L37.87-22.52Q36.11-21.60 34.88-20.09L34.88-20.09L34.88-20.09Q33.66-18.58 32.99-16.67L32.99-16.67L32.99-16.67Q32.33-14.76 32.33-12.78ZM81.32 0L64.66-20.88L64.66 0L62.14 0L62.14-25.56L64.08-25.56L81.00-4.28L81.00-25.52L83.52-25.52L83.52 0L81.32 0ZM109.69-22.79L108.47-20.77L108.47-20.77Q107.39-22.00 105.59-22.75L105.59-22.75L105.59-22.75Q103.79-23.51 101.48-23.51L101.48-23.51L101.48-23.51Q98.10-23.51 96.55-22.23L96.55-22.23L96.55-22.23Q95.00-20.95 95.00-18.76L95.00-18.76L95.00-18.76Q95.00-17.60 95.42-16.87L95.42-16.87L95.42-16.87Q95.83-16.13 96.70-15.59L96.70-15.59L96.70-15.59Q97.56-15.05 98.91-14.65L98.91-14.65L98.91-14.65Q100.26-14.26 102.10-13.86L102.10-13.86L102.10-13.86Q104.15-13.43 105.79-12.89L105.79-12.89L105.79-12.89Q107.42-12.35 108.58-11.54L108.58-11.54L108.58-11.54Q109.73-10.73 110.34-9.58L110.34-9.58L110.34-9.58Q110.95-8.42 110.95-6.70L110.95-6.70L110.95-6.70Q110.95-4.93 110.27-3.64L110.27-3.64L110.27-3.64Q109.58-2.34 108.36-1.48L108.36-1.48L108.36-1.48Q107.14-0.61 105.44-0.20L105.44-0.20L105.44-0.20Q103.75 0.22 101.74 0.22L101.74 0.22L101.74 0.22Q95.80 0.22 91.48-3.49L91.48-3.49L92.74-5.54L92.74-5.54Q93.42-4.82 94.37-4.18L94.37-4.18L94.37-4.18Q95.33-3.53 96.50-3.04L96.50-3.04L96.50-3.04Q97.67-2.56 99.00-2.29L99.00-2.29L99.00-2.29Q100.33-2.02 101.81-2.02L101.81-2.02L101.81-2.02Q104.87-2.02 106.58-3.11L106.58-3.11L106.58-3.11Q108.29-4.21 108.29-6.44L108.29-6.44L108.29-6.44Q108.29-7.63 107.80-8.44L107.80-8.44L107.80-8.44Q107.32-9.25 106.34-9.85L106.34-9.85L106.34-9.85Q105.37-10.44 103.93-10.87L103.93-10.87L103.93-10.87Q102.49-11.30 100.58-11.74L100.58-11.74L100.58-11.74Q98.57-12.20 97.06-12.71L97.06-12.71L97.06-12.71Q95.54-13.21 94.50-13.97L94.50-13.97L94.50-13.97Q93.46-14.72 92.93-15.79L92.93-15.79L92.93-15.79Q92.41-16.85 92.41-18.40L92.41-18.40L92.41-18.40Q92.41-20.16 93.08-21.55L93.08-21.55L93.08-21.55Q93.74-22.93 94.97-23.85L94.97-23.85L94.97-23.85Q96.19-24.77 97.85-25.25L97.85-25.25L97.85-25.25Q99.50-25.74 101.52-25.74L101.52-25.74L101.52-25.74Q104.08-25.74 106.07-24.97L106.07-24.97L106.07-24.97Q108.07-24.19 109.69-22.79L109.69-22.79ZM129.35-2.09L129.35-2.09L129.35-2.09Q131.76-2.09 133.36-3.01L133.36-3.01L133.36-3.01Q134.96-3.92 135.92-5.42L135.92-5.42L135.92-5.42Q136.87-6.91 137.25-8.82L137.25-8.82L137.25-8.82Q137.63-10.73 137.63-12.67L137.63-12.67L137.63-25.56L140.15-25.56L140.15-12.67L140.15-12.67Q140.15-10.08 139.57-7.76L139.57-7.76L139.57-7.76Q139.00-5.44 137.72-3.67L137.72-3.67L137.72-3.67Q136.44-1.91 134.39-0.86L134.39-0.86L134.39-0.86Q132.34 0.18 129.38 0.18L129.38 0.18L129.38 0.18Q126.36 0.18 124.29-0.92L124.29-0.92L124.29-0.92Q122.22-2.02 120.96-3.82L120.96-3.82L120.96-3.82Q119.70-5.62 119.16-7.92L119.16-7.92L119.16-7.92Q118.62-10.22 118.62-12.67L118.62-12.67L118.62-25.56L121.10-25.56L121.10-12.67L121.10-12.67Q121.10-10.66 121.50-8.75L121.50-8.75L121.50-8.75Q121.90-6.84 122.85-5.36L122.85-5.36L122.85-5.36Q123.80-3.89 125.39-2.99L125.39-2.99L125.39-2.99Q126.97-2.09 129.35-2.09ZM167.04 0L149.76 0L149.76-25.56L152.28-25.56L152.28-2.23L167.04-2.23L167.04 0ZM192.49-25.56L192.49-23.33L183.38-23.33L183.38 0L180.86 0L180.86-23.33L171.76-23.33L171.76-25.56L192.49-25.56ZM202.43 0L199.91 0L199.91-25.56L202.43-25.56L202.43 0ZM231.62 0L214.96-20.88L214.96 0L212.44 0L212.44-25.56L214.38-25.56L231.30-4.28L231.30-25.52L233.82-25.52L233.82 0L231.62 0ZM262.30 0L262.30-3.74L262.30-3.74Q258.73 0.18 254.09 0.18L254.09 0.18L254.09 0.18Q251.50 0.18 249.32-0.94L249.32-0.94L249.32-0.94Q247.14-2.05 245.54-3.89L245.54-3.89L245.54-3.89Q243.94-5.72 243.04-8.05L243.04-8.05L243.04-8.05Q242.14-10.37 242.14-12.82L242.14-12.82L242.14-12.82Q242.14-15.37 243.02-17.71L243.02-17.71L243.02-17.71Q243.90-20.05 245.48-21.83L245.48-21.83L245.48-21.83Q247.07-23.62 249.23-24.68L249.23-24.68L249.23-24.68Q251.39-25.74 253.94-25.74L253.94-25.74L253.94-25.74Q255.82-25.74 257.36-25.33L257.36-25.33L257.36-25.33Q258.91-24.91 260.12-24.17L260.12-24.17L260.12-24.17Q261.32-23.44 262.21-22.41L262.21-22.41L262.21-22.41Q263.09-21.38 263.70-20.16L263.70-20.16L261.76-18.86L261.76-18.86Q260.50-21.24 258.48-22.36L258.48-22.36L258.48-22.36Q256.46-23.47 253.91-23.47L253.91-23.47L253.91-23.47Q251.78-23.47 250.07-22.57L250.07-22.57L250.07-22.57Q248.36-21.67 247.16-20.18L247.16-20.18L247.16-20.18Q245.95-18.68 245.30-16.76L245.30-16.76L245.30-16.76Q244.66-14.83 244.66-12.78L244.66-12.78L244.66-12.78Q244.66-10.62 245.39-8.68L245.39-8.68L245.39-8.68Q246.13-6.73 247.43-5.27L247.43-5.27L247.43-5.27Q248.72-3.82 250.47-2.95L250.47-2.95L250.47-2.95Q252.22-2.09 254.27-2.09L254.27-2.09L254.27-2.09Q256.46-2.09 258.46-3.11L258.46-3.11L258.46-3.11Q260.46-4.14 262.30-6.37L262.30-6.37L262.30-10.62L256.61-10.62L256.61-12.56L264.42-12.56L264.42 0L262.30 0Z" fill="#00154f"/></g><g transform="translate(150.5,126.9771422187203)translate(61.058234123170095,54.60492482559928)rotate(0)translate(-61.058234123170095,-54.60492482559928) scale(0.9928006719105397,0.9928006719105397)" opacity="1"><defs class="defs"/><polygon fill="#00154f" points="92.369,110.121 123.002,110.121 76.818,0 47.285,0 0,110.121 76.984,110.121 68.512,88.129 &#10;&#9;38.176,88.129 61.266,29.377 " class="color c1"/></g><g transform="translate(256.42208381235355,127.08434817171513)translate(46.78895809382325,53.83245716171055)rotate(0)translate(-46.78895809382325,-53.83245716171055) scale(1.009666560795478,1.009666560795478)" opacity="1"><defs class="defs"/><path fill="#00154f" d="M81.058,10.131C73.306,3.377,62.415,0,48.383,0H0v38.723l28.745,68.545V79.643h19.638&#10;&#9;c14.032,0,24.923-3.584,32.675-10.758c7.748-7.172,11.624-17.254,11.624-30.238C92.682,26.391,88.806,16.887,81.058,10.131z&#10;&#9; M60.556,52.313c-3.196,2.932-7.725,4.396-13.587,4.396H28.745V22.936h18.224c5.862,0,10.391,1.441,13.587,4.318&#10;&#9;c3.193,2.883,4.792,6.99,4.792,12.332C65.348,45.139,63.749,49.381,60.556,52.313z" class="color c1"/></g></svg>